<svg xmlns="http://www.w3.org/2000/svg" viewBox="0 0 24 24" fill="currentColor"><path d="M1.125 0C.502 0 0 .502 0 1.125v21.75C0 23.498.502 24 1.125 24h21.75c.623 0 1.125-.502 1.125-1.125V1.125C24 .502 23.498 0 22.875 0zm4.828 10.125h5.438v2.109H8.7v9.516H5.953zm10.594 1.992a3.723 3.723 0 011.875-.492c1.418 0 2.418.704 2.418 1.957 0 1.113-.703 1.734-1.875 2.273l-.95.422c-.809.36-1.547.773-1.547 1.641 0 .938.809 1.582 1.992 1.582.773 0 1.5-.21 2.11-.633v1.992a4.03 4.03 0 01-2.25.668c-1.758 0-3.129-.82-3.129-2.484 0-1.2.668-1.828 1.71-2.297l1.079-.468c.703-.293 1.125-.668 1.125-1.336 0-.562-.516-.984-1.406-.984-.844 0-1.5.352-2.016.844zm-12.906.422h2.109v6.703c0 1.113.492 1.617 1.453 1.617.36 0 .715-.06 1.041-.187v1.816a3.403 3.403 0 01-1.336.234c-1.852 0-3.267-.891-3.267-3.047z"/></svg>
